<svg xmlns="http://www.w3.org/2000/svg" xmlns:xlink="http://www.w3.org/1999/xlink" width="204" height="37" viewBox="0 0 204 37">
    <defs>
        <path id="a" d="M11.98 2.512h4.644L27.712 28h-6.336l-2.196-5.4h-9.9L7.156 28H.964L11.98 2.512zm2.16 7.416l-3.096 7.92h6.228l-3.132-7.92zM29.656.784h5.4V28h-5.4V.784zm9.792 9.72h4.968v2.304h.072c.216-.312.498-.63.846-.954a6.4 6.4 0 0 1 1.224-.882c.468-.264.978-.48 1.53-.648a6.028 6.028 0 0 1 1.764-.252c1.296 0 2.472.222 3.528.666a7.867 7.867 0 0 1 2.718 1.872 8.347 8.347 0 0 1 1.746 2.862c.408 1.104.612 2.316.612 3.636 0 1.224-.186 2.394-.558 3.51a9.66 9.66 0 0 1-1.584 2.97 7.738 7.738 0 0 1-2.502 2.07c-.984.516-2.1.774-3.348.774-1.128 0-2.178-.174-3.15-.522a5.04 5.04 0 0 1-2.394-1.782h-.072v10.08h-5.4V10.504zm4.968 8.748c0 1.32.378 2.388 1.134 3.204.756.816 1.818 1.224 3.186 1.224 1.368 0 2.43-.408 3.186-1.224.756-.816 1.134-1.884 1.134-3.204 0-1.32-.378-2.388-1.134-3.204-.756-.816-1.818-1.224-3.186-1.224-1.368 0-2.43.408-3.186 1.224-.756.816-1.134 1.884-1.134 3.204zM67.024.784V12.88h.072c.12-.336.324-.672.612-1.008a4.788 4.788 0 0 1 1.044-.9c.408-.264.888-.48 1.44-.648a6.157 6.157 0 0 1 1.8-.252c1.368 0 2.472.21 3.312.63.84.42 1.494 1.002 1.962 1.746.468.744.786 1.62.954 2.628.168 1.008.252 2.1.252 3.276V28h-5.4v-8.568c0-.504-.018-1.026-.054-1.566a4.94 4.94 0 0 0-.324-1.494 2.579 2.579 0 0 0-.828-1.116c-.372-.288-.906-.432-1.602-.432-.696 0-1.26.126-1.692.378a2.576 2.576 0 0 0-.99 1.008 4.12 4.12 0 0 0-.45 1.422c-.072.528-.108 1.08-.108 1.656V28h-5.4V.784h5.4zm26.244 25.02h-.072c-.6.936-1.398 1.608-2.394 2.016a8.23 8.23 0 0 1-3.15.612 8.122 8.122 0 0 1-2.358-.342 5.95 5.95 0 0 1-1.998-1.026 4.955 4.955 0 0 1-1.368-1.692c-.336-.672-.504-1.452-.504-2.34 0-1.008.186-1.86.558-2.556a4.993 4.993 0 0 1 1.512-1.728 7.508 7.508 0 0 1 2.178-1.062 15.899 15.899 0 0 1 2.538-.558c.876-.12 1.752-.192 2.628-.216a89.172 89.172 0 0 1 2.43-.036c0-.96-.342-1.722-1.026-2.286-.684-.564-1.494-.846-2.43-.846-.888 0-1.698.186-2.43.558a6.638 6.638 0 0 0-1.962 1.53l-2.88-2.952a9.91 9.91 0 0 1 3.528-2.106 12.609 12.609 0 0 1 4.176-.702c1.584 0 2.886.198 3.906.594 1.02.396 1.836.978 2.448 1.746.612.768 1.038 1.71 1.278 2.826s.36 2.406.36 3.87V28h-4.968v-2.196zm-1.332-5.472c-.408 0-.918.018-1.53.054-.612.036-1.2.138-1.764.306a3.925 3.925 0 0 0-1.44.756c-.396.336-.594.804-.594 1.404 0 .648.276 1.128.828 1.44a3.464 3.464 0 0 0 1.728.468c.528 0 1.038-.072 1.53-.216.492-.144.93-.348 1.314-.612s.69-.6.918-1.008c.228-.408.342-.888.342-1.44v-1.152h-1.332zM114.904 8.74c-.456-.576-1.074-1.002-1.854-1.278s-1.518-.414-2.214-.414c-.408 0-.828.048-1.26.144-.432.096-.84.246-1.224.45a2.668 2.668 0 0 0-.936.81c-.24.336-.36.744-.36 1.224 0 .768.288 1.356.864 1.764.576.408 1.302.756 2.178 1.044.876.288 1.818.576 2.826.864 1.008.288 1.95.696 2.826 1.224a6.69 6.69 0 0 1 2.178 2.124c.576.888.864 2.076.864 3.564 0 1.416-.264 2.652-.792 3.708a7.524 7.524 0 0 1-2.142 2.628c-.9.696-1.944 1.212-3.132 1.548a13.76 13.76 0 0 1-3.762.504c-1.656 0-3.192-.252-4.608-.756-1.416-.504-2.736-1.32-3.96-2.448l3.996-4.392a5.833 5.833 0 0 0 2.178 1.782c.876.42 1.782.63 2.718.63a6.15 6.15 0 0 0 1.386-.162c.468-.108.888-.27 1.26-.486.372-.216.672-.492.9-.828.228-.336.342-.732.342-1.188 0-.768-.294-1.374-.882-1.818-.588-.444-1.326-.822-2.214-1.134a68.609 68.609 0 0 0-2.88-.936 12.933 12.933 0 0 1-2.88-1.26 6.94 6.94 0 0 1-2.214-2.088c-.588-.864-.882-2.004-.882-3.42 0-1.368.27-2.568.81-3.6a7.81 7.81 0 0 1 2.16-2.592c.9-.696 1.938-1.218 3.114-1.566a12.746 12.746 0 0 1 3.636-.522c1.44 0 2.832.204 4.176.612a9.632 9.632 0 0 1 3.636 2.052l-3.852 4.212zm25.74 27.468h-5.4v-10.08h-.072a5.04 5.04 0 0 1-2.394 1.782c-.972.348-2.022.522-3.15.522-1.248 0-2.364-.258-3.348-.774a7.738 7.738 0 0 1-2.502-2.07 9.66 9.66 0 0 1-1.584-2.97 11.026 11.026 0 0 1-.558-3.51c0-1.32.204-2.532.612-3.636a8.347 8.347 0 0 1 1.746-2.862 7.867 7.867 0 0 1 2.718-1.872c1.056-.444 2.232-.666 3.528-.666.6 0 1.182.084 1.746.252.564.168 1.08.384 1.548.648a6.4 6.4 0 0 1 1.224.882c.348.324.63.642.846.954h.072v-2.304h4.968v25.704zm-4.968-16.956c0-1.32-.378-2.388-1.134-3.204-.756-.816-1.818-1.224-3.186-1.224-1.368 0-2.43.408-3.186 1.224-.756.816-1.134 1.884-1.134 3.204 0 1.32.378 2.388 1.134 3.204.756.816 1.818 1.224 3.186 1.224 1.368 0 2.43-.408 3.186-1.224.756-.816 1.134-1.884 1.134-3.204zM161.812 28h-5.184v-2.376h-.072a5.978 5.978 0 0 1-.738 1.008c-.3.336-.666.636-1.098.9a6.38 6.38 0 0 1-1.476.648 6.157 6.157 0 0 1-1.8.252c-1.368 0-2.478-.21-3.33-.63-.852-.42-1.512-1.002-1.98-1.746-.468-.744-.78-1.62-.936-2.628a21.461 21.461 0 0 1-.234-3.276v-9.648h5.4v8.568c0 .504.018 1.026.054 1.566a4.94 4.94 0 0 0 .324 1.494c.18.456.456.828.828 1.116.372.288.906.432 1.602.432.696 0 1.26-.126 1.692-.378.432-.252.762-.588.99-1.008a4.12 4.12 0 0 0 .45-1.422c.072-.528.108-1.08.108-1.656v-8.712h5.4V28zm14.796-2.196h-.072c-.6.936-1.398 1.608-2.394 2.016a8.23 8.23 0 0 1-3.15.612 8.122 8.122 0 0 1-2.358-.342 5.95 5.95 0 0 1-1.998-1.026 4.955 4.955 0 0 1-1.368-1.692c-.336-.672-.504-1.452-.504-2.34 0-1.008.186-1.86.558-2.556a4.993 4.993 0 0 1 1.512-1.728 7.508 7.508 0 0 1 2.178-1.062 15.899 15.899 0 0 1 2.538-.558c.876-.12 1.752-.192 2.628-.216a89.172 89.172 0 0 1 2.43-.036c0-.96-.342-1.722-1.026-2.286-.684-.564-1.494-.846-2.43-.846-.888 0-1.698.186-2.43.558a6.638 6.638 0 0 0-1.962 1.53l-2.88-2.952a9.91 9.91 0 0 1 3.528-2.106 12.609 12.609 0 0 1 4.176-.702c1.584 0 2.886.198 3.906.594 1.02.396 1.836.978 2.448 1.746.612.768 1.038 1.71 1.278 2.826s.36 2.406.36 3.87V28h-4.968v-2.196zm-1.332-5.472c-.408 0-.918.018-1.53.054-.612.036-1.2.138-1.764.306a3.925 3.925 0 0 0-1.44.756c-.396.336-.594.804-.594 1.404 0 .648.276 1.128.828 1.44a3.464 3.464 0 0 0 1.728.468c.528 0 1.038-.072 1.53-.216.492-.144.93-.348 1.314-.612s.69-.6.918-1.008c.228-.408.342-.888.342-1.44v-1.152h-1.332zM203.32 28h-4.968v-2.304h-.072c-.216.312-.498.63-.846.954a6.4 6.4 0 0 1-1.224.882c-.468.264-.984.48-1.548.648a6.083 6.083 0 0 1-1.746.252c-1.296 0-2.472-.222-3.528-.666a7.867 7.867 0 0 1-2.718-1.872 8.347 8.347 0 0 1-1.746-2.862c-.408-1.104-.612-2.316-.612-3.636 0-1.224.186-2.394.558-3.51a9.66 9.66 0 0 1 1.584-2.97 7.738 7.738 0 0 1 2.502-2.07c.984-.516 2.1-.774 3.348-.774 1.128 0 2.178.174 3.15.522a5.04 5.04 0 0 1 2.394 1.782h.072V.784h5.4V28zm-4.968-8.748c0-1.32-.378-2.388-1.134-3.204-.756-.816-1.818-1.224-3.186-1.224-1.368 0-2.43.408-3.186 1.224-.756.816-1.134 1.884-1.134 3.204 0 1.32.378 2.388 1.134 3.204.756.816 1.818 1.224 3.186 1.224 1.368 0 2.43-.408 3.186-1.224.756-.816 1.134-1.884 1.134-3.204z"/>
    </defs>
    <g fill="none" fill-rule="evenodd">
        <path stroke="#BEBEBE" d="M11.98 2.512h4.644L27.712 28h-6.336l-2.196-5.4h-9.9L7.156 28H.964L11.98 2.512zm2.16 7.416l-3.096 7.92h6.228l-3.132-7.92zM29.656.784h5.4V28h-5.4zM39.448 10.504h4.968v2.304h.072c.216-.312.498-.63.846-.954a6.4 6.4 0 0 1 1.224-.882c.468-.264.978-.48 1.53-.648a6.028 6.028 0 0 1 1.764-.252c1.296 0 2.472.222 3.528.666a7.867 7.867 0 0 1 2.718 1.872 8.347 8.347 0 0 1 1.746 2.862c.408 1.104.612 2.316.612 3.636 0 1.224-.186 2.394-.558 3.51a9.66 9.66 0 0 1-1.584 2.97 7.738 7.738 0 0 1-2.502 2.07c-.984.516-2.1.774-3.348.774-1.128 0-2.178-.174-3.15-.522a5.04 5.04 0 0 1-2.394-1.782h-.072v10.08h-5.4V10.504zm4.968 8.748c0 1.32.378 2.388 1.134 3.204.756.816 1.818 1.224 3.186 1.224 1.368 0 2.43-.408 3.186-1.224.756-.816 1.134-1.884 1.134-3.204 0-1.32-.378-2.388-1.134-3.204-.756-.816-1.818-1.224-3.186-1.224-1.368 0-2.43.408-3.186 1.224-.756.816-1.134 1.884-1.134 3.204zM67.024.784V12.88h.072c.12-.336.324-.672.612-1.008a4.788 4.788 0 0 1 1.044-.9c.408-.264.888-.48 1.44-.648a6.157 6.157 0 0 1 1.8-.252c1.368 0 2.472.21 3.312.63.84.42 1.494 1.002 1.962 1.746.468.744.786 1.62.954 2.628.168 1.008.252 2.1.252 3.276V28h-5.4v-8.568c0-.504-.018-1.026-.054-1.566a4.94 4.94 0 0 0-.324-1.494 2.579 2.579 0 0 0-.828-1.116c-.372-.288-.906-.432-1.602-.432-.696 0-1.26.126-1.692.378a2.576 2.576 0 0 0-.99 1.008 4.12 4.12 0 0 0-.45 1.422c-.072.528-.108 1.08-.108 1.656V28h-5.4V.784h5.4zM93.268 25.804h-.072c-.6.936-1.398 1.608-2.394 2.016a8.23 8.23 0 0 1-3.15.612 8.122 8.122 0 0 1-2.358-.342 5.95 5.95 0 0 1-1.998-1.026 4.955 4.955 0 0 1-1.368-1.692c-.336-.672-.504-1.452-.504-2.34 0-1.008.186-1.86.558-2.556a4.993 4.993 0 0 1 1.512-1.728 7.508 7.508 0 0 1 2.178-1.062 15.899 15.899 0 0 1 2.538-.558c.876-.12 1.752-.192 2.628-.216a89.172 89.172 0 0 1 2.43-.036c0-.96-.342-1.722-1.026-2.286-.684-.564-1.494-.846-2.43-.846-.888 0-1.698.186-2.43.558a6.638 6.638 0 0 0-1.962 1.53l-2.88-2.952a9.91 9.91 0 0 1 3.528-2.106 12.609 12.609 0 0 1 4.176-.702c1.584 0 2.886.198 3.906.594 1.02.396 1.836.978 2.448 1.746.612.768 1.038 1.71 1.278 2.826s.36 2.406.36 3.87V28h-4.968v-2.196zm-1.332-5.472c-.408 0-.918.018-1.53.054-.612.036-1.2.138-1.764.306a3.925 3.925 0 0 0-1.44.756c-.396.336-.594.804-.594 1.404 0 .648.276 1.128.828 1.44a3.464 3.464 0 0 0 1.728.468c.528 0 1.038-.072 1.53-.216.492-.144.93-.348 1.314-.612s.69-.6.918-1.008c.228-.408.342-.888.342-1.44v-1.152h-1.332zM114.904 8.74c-.456-.576-1.074-1.002-1.854-1.278s-1.518-.414-2.214-.414c-.408 0-.828.048-1.26.144-.432.096-.84.246-1.224.45a2.668 2.668 0 0 0-.936.81c-.24.336-.36.744-.36 1.224 0 .768.288 1.356.864 1.764.576.408 1.302.756 2.178 1.044.876.288 1.818.576 2.826.864 1.008.288 1.95.696 2.826 1.224a6.69 6.69 0 0 1 2.178 2.124c.576.888.864 2.076.864 3.564 0 1.416-.264 2.652-.792 3.708a7.524 7.524 0 0 1-2.142 2.628c-.9.696-1.944 1.212-3.132 1.548a13.76 13.76 0 0 1-3.762.504c-1.656 0-3.192-.252-4.608-.756-1.416-.504-2.736-1.32-3.96-2.448l3.996-4.392a5.833 5.833 0 0 0 2.178 1.782c.876.42 1.782.63 2.718.63a6.15 6.15 0 0 0 1.386-.162c.468-.108.888-.27 1.26-.486.372-.216.672-.492.9-.828.228-.336.342-.732.342-1.188 0-.768-.294-1.374-.882-1.818-.588-.444-1.326-.822-2.214-1.134a68.609 68.609 0 0 0-2.88-.936 12.933 12.933 0 0 1-2.88-1.26 6.94 6.94 0 0 1-2.214-2.088c-.588-.864-.882-2.004-.882-3.42 0-1.368.27-2.568.81-3.6a7.81 7.81 0 0 1 2.16-2.592c.9-.696 1.938-1.218 3.114-1.566a12.746 12.746 0 0 1 3.636-.522c1.44 0 2.832.204 4.176.612a9.632 9.632 0 0 1 3.636 2.052l-3.852 4.212zM140.644 36.208h-5.4v-10.08h-.072a5.04 5.04 0 0 1-2.394 1.782c-.972.348-2.022.522-3.15.522-1.248 0-2.364-.258-3.348-.774a7.738 7.738 0 0 1-2.502-2.07 9.66 9.66 0 0 1-1.584-2.97 11.026 11.026 0 0 1-.558-3.51c0-1.32.204-2.532.612-3.636a8.347 8.347 0 0 1 1.746-2.862 7.867 7.867 0 0 1 2.718-1.872c1.056-.444 2.232-.666 3.528-.666.6 0 1.182.084 1.746.252.564.168 1.08.384 1.548.648a6.4 6.4 0 0 1 1.224.882c.348.324.63.642.846.954h.072v-2.304h4.968v25.704zm-4.968-16.956c0-1.32-.378-2.388-1.134-3.204-.756-.816-1.818-1.224-3.186-1.224-1.368 0-2.43.408-3.186 1.224-.756.816-1.134 1.884-1.134 3.204 0 1.32.378 2.388 1.134 3.204.756.816 1.818 1.224 3.186 1.224 1.368 0 2.43-.408 3.186-1.224.756-.816 1.134-1.884 1.134-3.204zM161.812 28h-5.184v-2.376h-.072a5.978 5.978 0 0 1-.738 1.008c-.3.336-.666.636-1.098.9a6.38 6.38 0 0 1-1.476.648 6.157 6.157 0 0 1-1.8.252c-1.368 0-2.478-.21-3.33-.63-.852-.42-1.512-1.002-1.98-1.746-.468-.744-.78-1.62-.936-2.628a21.461 21.461 0 0 1-.234-3.276v-9.648h5.4v8.568c0 .504.018 1.026.054 1.566a4.94 4.94 0 0 0 .324 1.494c.18.456.456.828.828 1.116.372.288.906.432 1.602.432.696 0 1.26-.126 1.692-.378.432-.252.762-.588.99-1.008a4.12 4.12 0 0 0 .45-1.422c.072-.528.108-1.08.108-1.656v-8.712h5.4V28zM176.608 25.804h-.072c-.6.936-1.398 1.608-2.394 2.016a8.23 8.23 0 0 1-3.15.612 8.122 8.122 0 0 1-2.358-.342 5.95 5.95 0 0 1-1.998-1.026 4.955 4.955 0 0 1-1.368-1.692c-.336-.672-.504-1.452-.504-2.34 0-1.008.186-1.86.558-2.556a4.993 4.993 0 0 1 1.512-1.728 7.508 7.508 0 0 1 2.178-1.062 15.899 15.899 0 0 1 2.538-.558c.876-.12 1.752-.192 2.628-.216a89.172 89.172 0 0 1 2.43-.036c0-.96-.342-1.722-1.026-2.286-.684-.564-1.494-.846-2.43-.846-.888 0-1.698.186-2.43.558a6.638 6.638 0 0 0-1.962 1.53l-2.88-2.952a9.91 9.91 0 0 1 3.528-2.106 12.609 12.609 0 0 1 4.176-.702c1.584 0 2.886.198 3.906.594 1.02.396 1.836.978 2.448 1.746.612.768 1.038 1.71 1.278 2.826s.36 2.406.36 3.87V28h-4.968v-2.196zm-1.332-5.472c-.408 0-.918.018-1.53.054-.612.036-1.2.138-1.764.306a3.925 3.925 0 0 0-1.44.756c-.396.336-.594.804-.594 1.404 0 .648.276 1.128.828 1.44a3.464 3.464 0 0 0 1.728.468c.528 0 1.038-.072 1.53-.216.492-.144.93-.348 1.314-.612s.69-.6.918-1.008c.228-.408.342-.888.342-1.44v-1.152h-1.332zM203.32 28h-4.968v-2.304h-.072c-.216.312-.498.63-.846.954a6.4 6.4 0 0 1-1.224.882c-.468.264-.984.48-1.548.648a6.083 6.083 0 0 1-1.746.252c-1.296 0-2.472-.222-3.528-.666a7.867 7.867 0 0 1-2.718-1.872 8.347 8.347 0 0 1-1.746-2.862c-.408-1.104-.612-2.316-.612-3.636 0-1.224.186-2.394.558-3.51a9.66 9.66 0 0 1 1.584-2.97 7.738 7.738 0 0 1 2.502-2.07c.984-.516 2.1-.774 3.348-.774 1.128 0 2.178.174 3.15.522a5.04 5.04 0 0 1 2.394 1.782h.072V.784h5.4V28zm-4.968-8.748c0-1.32-.378-2.388-1.134-3.204-.756-.816-1.818-1.224-3.186-1.224-1.368 0-2.43.408-3.186 1.224-.756.816-1.134 1.884-1.134 3.204 0 1.32.378 2.388 1.134 3.204.756.816 1.818 1.224 3.186 1.224 1.368 0 2.43-.408 3.186-1.224.756-.816 1.134-1.884 1.134-3.204z"/>
        <g>
            <use fill="#303031" xlink:href="#a"/>
            <use fill="#2E2E2E" xlink:href="#a"/>
        </g>
    </g>
</svg>
