<svg xmlns="http://www.w3.org/2000/svg" width="1712" height="727" viewBox="0 0 1712 727">
    <defs>
        <linearGradient id="a" x1="6.825%" x2="89.957%" y1="50%" y2="17.903%">
            <stop offset="0%" stop-color="#FFF"/>
            <stop offset="100%" stop-color="#F8FBFD"/>
        </linearGradient>
        <linearGradient id="b" x1="66.707%" x2="28.285%" y1="77.805%" y2="0%">
            <stop offset="0%" stop-color="#FFEBDD"/>
            <stop offset="100%" stop-color="#FFFBF4"/>
        </linearGradient>
        <linearGradient id="c" x1="29.412%" x2="77.079%" y1="0%" y2="80.318%">
            <stop offset="0%" stop-color="#95F469"/>
            <stop offset="100%" stop-color="#15D06E"/>
        </linearGradient>
        <linearGradient id="d" x1="50%" x2="31.518%" y1="0%" y2="96.714%">
            <stop offset="0%" stop-color="#E6F3FF"/>
            <stop offset="100%" stop-color="#DFEAF7"/>
        </linearGradient>
        <linearGradient id="e" x1="50%" x2="31.518%" y1="0%" y2="96.714%">
            <stop offset="0%" stop-color="#DDE9FF"/>
            <stop offset="100%" stop-color="#DFEAF7"/>
        </linearGradient>
        <linearGradient id="f" x1="100%" x2="0%" y1="55.121%" y2="50%">
            <stop offset="0%" stop-color="#FFF" stop-opacity=".187"/>
            <stop offset="100%" stop-color="#BBB" stop-opacity=".187"/>
        </linearGradient>
    </defs>
    <g fill="none" fill-rule="evenodd" transform="translate(1 8)">
        <circle cx="971" cy="712" r="5" fill="#DDABF6"/>
        <circle cx="1066.5" cy="130.5" r="113.5" stroke="url(#a)" stroke-width="50"/>
        <circle cx="39.5" cy="81.5" r="3.5" fill="#D5EEFF"/>
        <circle cx="4" cy="383" r="4" stroke="#A3EEAD" stroke-width="2"/>
        <path stroke="#39B4FF" stroke-width="3" d="M380 710h26l-13-20z" opacity=".324"/>
        <circle cx="509" cy="26" r="10" stroke="#FE8F8F" stroke-width="3"/>
        <path fill="url(#b)" d="M1362.219 496.142h151.249c11.046 0 20 8.955 20 20a20 20 0 0 1-3.837 11.78l-75.625 103.767c-6.505 8.927-19.016 10.89-27.942 4.384a20 20 0 0 1-4.384-4.384l-75.624-103.767c-6.506-8.927-4.543-21.437 4.383-27.943a20 20 0 0 1 11.78-3.837z" transform="rotate(-105 1437.843 569.606)"/>
        <path fill="url(#c)" d="M713.41 69.789h180.548c11.046 0 20 8.954 20 20a20 20 0 0 1-3.836 11.78l-90.274 123.867c-6.506 8.927-19.016 10.89-27.943 4.384a20 20 0 0 1-4.383-4.384l-90.274-123.868c-6.506-8.926-4.543-21.437 4.383-27.942a20 20 0 0 1 11.78-3.837z" opacity=".105" transform="rotate(75 803.684 151.723)"/>
        <path stroke="url(#d)" stroke-dasharray="4,5" d="M1353.5 713c196.89 0 356.5-159.61 356.5-356.5S1550.39 0 1353.5 0 997 159.61 997 356.5 1156.61 713 1353.5 713z"/>
        <path stroke="url(#e)" stroke-dasharray="4,5" d="M1353 555c109.352 0 198-88.648 198-198s-88.648-198-198-198-198 88.648-198 198 88.648 198 198 198z"/>
        <rect width="308.402" height="308.402" x="757.66" y="391.66" stroke="url(#f)" rx="100" transform="rotate(-64 911.861 545.861)"/>
    </g>
</svg>
